REM DIRINDEX 1\2,1\3,1\4,1\5,1\6
REM DIRNAME cjc030,folder01,folder02,folder03,folder04,folder05
TITLE ""
FILE "Disc2Track66.mp3" MP3
  TRACK 01 AUDIO
    TITLE "3:cjc030_04055"
    INDEX 01 00:00:00
  TRACK 02 AUDIO
    TITLE "0:"
    INDEX 01 00:01:09
  TRACK 03 AUDIO
    TITLE "4:cjc030_04056"
    INDEX 01 00:01:17
  TRACK 04 AUDIO
    TITLE "0:"
    INDEX 01 00:02:18
  TRACK 05 AUDIO
    TITLE "5:cjc030_04057"
    INDEX 01 00:02:26
  TRACK 06 AUDIO
    TITLE "0:"
    INDEX 01 00:03:41
  TRACK 07 AUDIO
    TITLE "3:cjc030_04058"
    INDEX 01 00:04:27
  TRACK 08 AUDIO
    TITLE "0:"
    INDEX 01 00:05:50
  TRACK 09 AUDIO
    TITLE "4:cjc030_04059"
    INDEX 01 00:05:59
  TRACK 10 AUDIO
    TITLE "0:"
    INDEX 01 00:06:63
  TRACK 11 AUDIO
    TITLE "5:cjc030_04060"
    INDEX 01 00:06:71
  TRACK 12 AUDIO
    TITLE "0:"
    INDEX 01 00:08:23
  TRACK 13 AUDIO
    TITLE "3:cjc030_04061"
    INDEX 01 00:09:02
  TRACK 14 AUDIO
    TITLE "0:"
    INDEX 01 00:10:16
  TRACK 15 AUDIO
    TITLE "4:cjc030_04062"
    INDEX 01 00:10:25
  TRACK 16 AUDIO
    TITLE "0:"
    INDEX 01 00:11:35
  TRACK 17 AUDIO
    TITLE "5:cjc030_04063"
    INDEX 01 00:11:40
  TRACK 18 AUDIO
    TITLE "0:"
    INDEX 01 00:12:60
  TRACK 19 AUDIO
    TITLE "3:cjc030_04064"
    INDEX 01 00:13:32
  TRACK 20 AUDIO
    TITLE "0:"
    INDEX 01 00:14:51
  TRACK 21 AUDIO
    TITLE "4:cjc030_04065"
    INDEX 01 00:14:62
  TRACK 22 AUDIO
    TITLE "0:"
    INDEX 01 00:16:12
  TRACK 23 AUDIO
    TITLE "5:cjc030_04066"
    INDEX 01 00:16:20
  TRACK 24 AUDIO
    TITLE "0:"
    INDEX 01 00:17:41
  TRACK 25 AUDIO
    TITLE "3:cjc030_04067"
    INDEX 01 00:18:21
  TRACK 26 AUDIO
    TITLE "0:"
    INDEX 01 00:19:32
  TRACK 27 AUDIO
    TITLE "4:cjc030_04068"
    INDEX 01 00:19:40
  TRACK 28 AUDIO
    TITLE "0:"
    INDEX 01 00:20:36
  TRACK 29 AUDIO
    TITLE "5:cjc030_04069"
    INDEX 01 00:20:43
  TRACK 30 AUDIO
    TITLE "0:"
    INDEX 01 00:21:53
  TRACK 31 AUDIO
    TITLE "3:cjc030_04070"
    INDEX 01 00:22:30
  TRACK 32 AUDIO
    TITLE "0:"
    INDEX 01 00:23:44
  TRACK 33 AUDIO
    TITLE "4:cjc030_04071"
    INDEX 01 00:23:53
  TRACK 34 AUDIO
    TITLE "0:"
    INDEX 01 00:24:49
  TRACK 35 AUDIO
    TITLE "5:cjc030_04072"
    INDEX 01 00:24:59
  TRACK 36 AUDIO
    TITLE "0:"
    INDEX 01 00:25:70
  TRACK 37 AUDIO
    TITLE "3:cjc030_04073"
    INDEX 01 00:26:52
  TRACK 38 AUDIO
    TITLE "0:"
    INDEX 01 00:27:69
  TRACK 39 AUDIO
    TITLE "4:cjc030_04074"
    INDEX 01 00:28:02
  TRACK 40 AUDIO
    TITLE "0:"
    INDEX 01 00:29:07
  TRACK 41 AUDIO
    TITLE "5:cjc030_04075"
    INDEX 01 00:29:17
  TRACK 42 AUDIO
    TITLE "0:"
    INDEX 01 00:30:32
  TRACK 43 AUDIO
    TITLE "3:cjc030_04076"
    INDEX 01 00:31:10
  TRACK 44 AUDIO
    TITLE "0:"
    INDEX 01 00:32:25
  TRACK 45 AUDIO
    TITLE "4:cjc030_04077"
    INDEX 01 00:32:35
  TRACK 46 AUDIO
    TITLE "0:"
    INDEX 01 00:33:52
  TRACK 47 AUDIO
    TITLE "5:cjc030_04078"
    INDEX 01 00:33:62
  TRACK 48 AUDIO
    TITLE "0:"
    INDEX 01 00:35:02
  TRACK 49 AUDIO
    TITLE "3:cjc030_04079"
    INDEX 01 00:35:59
  TRACK 50 AUDIO
    TITLE "0:"
    INDEX 01 00:36:66
  TRACK 51 AUDIO
    TITLE "4:cjc030_04080"
    INDEX 01 00:36:74
  TRACK 52 AUDIO
    TITLE "0:"
    INDEX 01 00:38:18
  TRACK 53 AUDIO
    TITLE "5:cjc030_04081"
    INDEX 01 00:38:26
  TRACK 54 AUDIO
    TITLE "0:"
    INDEX 01 00:39:35
  TRACK 55 AUDIO
    TITLE "3:cjc030_04082"
    INDEX 01 00:40:19
  TRACK 56 AUDIO
    TITLE "0:"
    INDEX 01 00:41:44
  TRACK 57 AUDIO
    TITLE "4:cjc030_04083"
    INDEX 01 00:41:53
  TRACK 58 AUDIO
    TITLE "0:"
    INDEX 01 00:42:68
  TRACK 59 AUDIO
    TITLE "5:cjc030_04084"
    INDEX 01 00:43:01
  TRACK 60 AUDIO
    TITLE "0:"
    INDEX 01 00:44:12
